<?xml version="1.0" standalone="no"?>
<!DOCTYPE svg PUBLIC "-//W3C//DTD SVG 20010904//EN"
 "http://www.w3.org/TR/2001/REC-SVG-20010904/DTD/svg10.dtd">
<svg version="1.0" xmlns="http://www.w3.org/2000/svg"
 width="860.000000pt" height="756.000000pt" viewBox="0 0 860.000000 756.000000"
 preserveAspectRatio="xMidYMid meet">

<g transform="translate(0.000000,756.000000) scale(0.100000,-0.100000)"
fill="#000000" stroke="none">
<path d="M750 7134 c-30 -8 -84 -28 -120 -46 -89 -43 -215 -169 -258 -258 -67
-138 -62 103 -62 -3005 0 -3130 -6 -2868 67 -3009 50 -96 156 -201 251 -249
148 -74 -177 -68 3707 -65 l3490 3 65 23 c182 66 316 200 382 382 l23 65 3
2820 c3 3138 8 2890 -65 3037 -48 95 -153 201 -249 251 -142 73 196 67 -3684
66 -3021 0 -3502 -2 -3550 -15z m7034 -346 c25 -8 59 -31 88 -59 73 -73 78
-101 78 -426 l0 -273 -3645 0 -3645 0 0 283 c0 172 4 297 11 321 14 51 92 132
144 151 34 12 539 14 3484 15 2685 0 3453 -3 3485 -12z m166 -3416 c0 -2580 7
-2366 -75 -2447 -82 -82 266 -75 -3570 -75 -3780 0 -3484 -5 -3562 63 -20 17
-47 54 -59 82 l-24 50 0 2313 0 2312 3645 0 3645 0 0 -2298z"/>
<path d="M1035 6572 c-71 -33 -125 -115 -125 -187 0 -105 100 -205 205 -205
121 0 205 85 205 207 0 72 -28 125 -86 166 -54 38 -141 46 -199 19z"/>
<path d="M1515 6571 c-191 -87 -148 -372 60 -389 91 -7 160 31 200 112 30 60
32 116 6 171 -49 105 -166 152 -266 106z"/>
<path d="M1976 6575 c-135 -48 -177 -218 -80 -325 97 -107 264 -86 332 40 19
37 23 56 20 106 -5 82 -38 132 -109 168 -59 29 -104 32 -163 11z"/>
<path d="M4615 5058 c-12 -35 -907 -3234 -912 -3259 l-5 -29 156 0 c86 0 156
2 156 5 0 4 893 3197 916 3278 5 16 -7 17 -151 17 -116 0 -157 -3 -160 -12z"/>
<path d="M2385 4036 l-1050 -442 -3 -185 -2 -185 472 -202 c260 -111 732 -312
1048 -447 316 -135 580 -245 587 -245 11 0 13 39 11 191 l-3 191 -325 134
c-179 74 -556 230 -838 346 -298 123 -508 214 -500 218 7 4 380 157 828 340
448 183 821 337 828 343 9 7 12 59 12 198 0 104 -3 189 -7 189 -5 -1 -480
-200 -1058 -444z"/>
<path d="M5182 4285 l3 -197 834 -341 c785 -322 831 -342 805 -354 -125 -52
-1109 -459 -1346 -556 l-298 -122 0 -196 0 -197 643 275 c353 151 828 353
1055 450 l412 176 -2 186 -3 185 -1040 439 c-572 241 -1046 441 -1053 444 -10
4 -12 -35 -10 -192z"/>
<path d="M3220 3420 l0 -310 70 0 70 0 2 188 3 187 17 -105 c9 -58 22 -142 29
-187 l11 -83 49 0 c58 0 51 -18 79 205 12 88 23 165 25 170 2 6 4 -77 4 -182
l1 -193 70 0 70 0 0 310 0 310 -104 0 c-121 0 -108 17 -127 -157 -7 -62 -14
-111 -16 -109 -2 2 -11 50 -18 107 -8 57 -18 116 -21 132 l-6 27 -104 0 -104
0 0 -310z"/>
<path d="M4977 3723 c-4 -3 -7 -143 -7 -310 l0 -303 70 0 70 0 1 128 1 127 18
-55 c11 -30 29 -88 40 -127 l22 -73 69 0 69 0 0 310 0 311 -62 -3 -63 -3 -5
-130 -5 -130 -43 133 -43 132 -63 0 c-34 0 -66 -3 -69 -7z"/>
</g>
</svg>
